FILE "GP Challenge (E) (Track 1) [SLES-03207].bin" BINARY
  TRACK 01 MODE2/2352
    INDEX 01 00:00:00
FILE "GP Challenge (E) (Track 2) [SLES-03207].bin" BINARY
  TRACK 02 AUDIO
    INDEX 00 00:00:00
    INDEX 01 00:02:00
FILE "GP Challenge (E) (Track 3) [SLES-03207].bin" BINARY
  TRACK 03 AUDIO
    INDEX 00 00:00:00
    INDEX 01 00:02:00
